<svg width="150" height="15" viewBox="0 0 150 15" fill="none" xmlns="http://www.w3.org/2000/svg">
<path d="M74.6627 14.374H69.5427V0.685986H74.6627V14.374ZM70.0427 13.874H74.1627V1.18599H70.0427V13.874ZM81.7867 14.374H76.7697V0.685986H87.2517C88.7533 0.564386 90.2487 0.985956 91.4657 1.87399C91.9896 2.3533 92.3957 2.94718 92.6522 3.60928C92.9088 4.27139 93.0089 4.98382 92.9447 5.69099C93.0195 6.91296 92.6306 8.11819 91.8557 9.06599C90.9387 10.118 89.4127 10.66 87.3207 10.679C86.7937 10.693 82.8447 10.679 81.7897 10.679L81.7867 14.374ZM77.2667 13.874H81.2867V10.174H81.5377C81.5887 10.174 86.7157 10.19 87.3087 10.174C89.2577 10.157 90.6587 9.67399 91.4777 8.73099C92.1675 7.87344 92.5101 6.78814 92.4377 5.68999C92.4992 5.05636 92.4139 4.41708 92.1885 3.82173C91.963 3.22638 91.6035 2.69096 91.1377 2.25699C90.0093 1.44709 88.6287 1.06692 87.2447 1.18499H77.2697L77.2667 13.874ZM86.1897 7.60399H81.2527V3.87799H86.2227C86.575 3.82931 86.9339 3.87043 87.266 3.99752C87.5982 4.12462 87.8929 4.33357 88.1227 4.60499C88.3312 4.95193 88.4295 5.35397 88.4047 5.75799C88.4234 6.13309 88.3424 6.50646 88.1697 6.83999C87.9326 7.12587 87.6259 7.34594 87.2791 7.47904C86.9324 7.61214 86.5572 7.65379 86.1897 7.59999V7.60399ZM81.7527 7.10399H86.1897C87.0097 7.10399 87.5177 6.93299 87.7427 6.58099C87.8666 6.32514 87.9227 6.04175 87.9057 5.75799C87.9276 5.46005 87.863 5.16213 87.7197 4.89999L87.7137 4.89099C87.4757 4.54099 87.0027 4.37799 86.2227 4.37799H81.7527V7.10399ZM102.07 14.576C97.5797 14.576 94.8997 13.461 93.8787 11.168C93.7116 10.7251 93.5982 10.2638 93.5407 9.79399L93.4967 9.50599H98.8387L98.8737 9.71599C98.9148 9.92918 99.0057 10.1299 99.1377 10.302C99.3487 10.557 100.053 10.985 102.389 10.985C105.197 10.985 105.197 10.492 105.197 10.227C105.197 9.77999 104.872 9.62699 102.582 9.38299L102.147 9.34199C101.285 9.26099 100.195 9.15799 99.6967 9.11499C95.4967 8.73499 93.6217 7.42999 93.6217 4.88499C93.6217 2.21199 96.8127 0.484985 101.752 0.484985C105.781 0.484985 108.377 1.54699 109.466 3.64399C109.724 4.13177 109.898 4.65998 109.979 5.20599L110.014 5.48699H104.666L104.644 5.26099C104.623 5.08437 104.548 4.91868 104.428 4.78699C104.228 4.51899 103.596 4.07599 101.634 4.07599C99.2247 4.07599 98.8927 4.38399 98.8927 4.71599C98.8927 5.15899 99.6537 5.31599 102.093 5.57699C103.11 5.65999 104.745 5.82799 105.305 5.89599C108.826 6.27799 110.397 7.55099 110.397 10.025C110.398 12.1 108.953 14.576 102.07 14.576ZM94.0807 10.006C94.1308 10.3358 94.217 10.659 94.3377 10.97C95.2677 13.059 97.7977 14.076 102.07 14.076C105.642 14.076 109.901 13.376 109.901 10.025C109.901 7.83199 108.511 6.74599 105.252 6.39299C104.692 6.32499 103.067 6.15799 102.052 6.07399C99.4517 5.79199 98.3947 5.64199 98.3947 4.71599C98.3947 3.75799 99.5337 3.57599 101.636 3.57599C103.297 3.57599 104.37 3.87599 104.825 4.48099C104.949 4.63004 105.043 4.80194 105.101 4.98699H109.435C109.348 4.60023 109.21 4.22668 109.025 3.87599C108.025 1.95699 105.582 0.984985 101.754 0.984985C97.1187 0.984985 94.1237 2.51599 94.1237 4.88499C94.1237 7.14499 95.8047 8.26099 99.7427 8.61699C100.243 8.65999 101.332 8.76299 102.196 8.84499L102.634 8.88599C104.761 9.10999 105.699 9.24999 105.699 10.227C105.699 11.279 104.486 11.485 102.391 11.485C100.453 11.485 99.2287 11.194 98.7557 10.621C98.6099 10.4383 98.4999 10.2296 98.4317 10.006H94.0807ZM119.897 14.559C114.677 14.559 111.797 12.448 111.797 8.61399V0.685986H116.849V8.61399C116.849 9.92899 118.026 10.683 120.077 10.683C122.037 10.683 123.254 9.89599 123.254 8.63099V0.685986H128.254V9.03399C128.259 12.545 125.21 14.559 119.894 14.559H119.897ZM112.297 1.18599V8.61399C112.297 13.352 117.055 14.059 119.897 14.059C122.835 14.059 127.762 13.406 127.762 9.03399V1.18599H123.762V8.63099C123.762 10.181 122.318 11.183 120.085 11.183C117.751 11.183 116.357 10.223 116.357 8.61399V1.18599H112.297ZM149.442 14.374H144.674V8.19399L141.97 14.374H137.811L135.135 8.20599V14.374H130.35V0.685986H136.644L139.914 8.23299L143.342 0.685986H149.448L149.442 14.374ZM145.174 13.874H148.942V1.18599H143.66L139.898 9.46499L136.312 1.18599H130.846V13.874H134.631V5.79999L138.131 13.877H141.631L145.168 5.81199L145.174 13.874ZM5.02373 0.935986H0.469727V14.124H13.0537V10.613H5.02373V0.935986ZM22.2457 0.635985C16.4327 0.635985 13.3757 3.39099 13.3757 7.43599C13.3757 12.006 16.5847 14.324 22.2457 14.324C28.4777 14.324 31.0987 11.636 31.0987 7.43599C31.0987 3.17099 28.1417 0.633986 22.2457 0.633986V0.635985ZM22.2287 4.06299C22.6244 4.06113 23.0199 4.08417 23.4127 4.13199L18.3217 9.22299C18.0808 8.67809 17.9633 8.08659 17.9777 7.49099C17.9777 5.42199 19.0197 4.06099 22.2287 4.06099V4.06299ZM22.2457 10.951C21.8644 10.9527 21.4834 10.9313 21.1047 10.887L26.2047 5.78699C26.4366 6.32289 26.5476 6.90332 26.5297 7.48699C26.5297 9.49999 25.5697 10.949 22.2457 10.949V10.951ZM40.1217 9.15099H44.8087C44.7397 9.47629 44.5959 9.78099 44.3887 10.041C43.417 10.8326 42.1769 11.2178 40.9277 11.116C40.2989 11.1833 39.6631 11.1146 39.0632 10.9146C38.4633 10.7147 37.9133 10.3881 37.4507 9.95699C36.9768 9.26189 36.7517 8.42709 36.8117 7.58799C36.735 6.70873 36.9798 5.83151 37.5007 5.11899C38.1557 4.37899 39.2647 4.05999 40.8947 4.05999C41.9318 3.97412 42.9676 4.24047 43.8347 4.81599C44.108 5.03307 44.3123 5.3249 44.4227 5.65599H48.7697C48.7381 5.11046 48.6069 4.57532 48.3827 4.07699C47.3417 1.95999 44.9217 0.699986 40.8067 0.699986C37.2277 0.699986 34.8257 1.79199 33.4987 3.43899C32.6223 4.62835 32.1724 6.07843 32.2217 7.55499C32.165 9.06499 32.6033 10.5521 33.4697 11.79C34.7807 13.49 37.1157 14.326 39.9217 14.326C41.7872 14.4561 43.64 13.9336 45.1627 12.848L45.2807 14.124H48.8917V6.31199H40.1217V9.15099ZM59.1407 0.632985C53.3287 0.632985 50.2707 3.38799 50.2707 7.43299C50.2707 12.003 53.4787 14.321 59.1407 14.321C65.3737 14.321 67.9947 11.633 67.9947 7.43299C67.9947 3.17099 65.0377 0.633986 59.1407 0.633986V0.632985ZM59.1247 4.05999C59.51 4.05885 59.895 4.08089 60.2777 4.12599L55.2067 9.19999C54.9733 8.66109 54.8597 8.07809 54.8737 7.49099C54.8697 5.42199 55.9157 4.06099 59.1247 4.06099V4.05999ZM59.1407 10.948C58.7493 10.9497 58.3582 10.9269 57.9697 10.88L63.0867 5.76199C63.3274 6.30502 63.4426 6.89531 63.4237 7.48899C63.4257 9.49999 62.4697 10.949 59.1407 10.949V10.948Z" fill="#DAC5A7"/>
</svg>
